# xmcd
#
# Track frame offsets:
#	150
#	16669
#	35073
#	57677
#	74477
#	91649
#	111298
#	132754
#	149117
#	165183
#	184461
#	200987
#	218838
#	237757
#	259433
#	279358
#	293209
#	303198
#	318531
#	334391
#
# Disc length: 4611 seconds
#
# Revision: 1
# Processed by: cddbd v1.5.2PL0 Copyright (c) Steve Scherf et al.
# Submitted via: audiograbber 1.83.01
#
DISCID=3e120114
DTITLE=Variuos - Honky Tonk Heaven 2 of 2
DYEAR=1900
DGENRE=Country
TTITLE0=Big and Rich - Save A Horse,Ride A Cowboy
TTITLE1=Alan Jackson - It's Five O'Clock Somewhere
TTITLE2=Shania Twain - Forever And For Always
TTITLE3=John Denver - Sunshine On My Shoulders
TTITLE4=Kenny Chesney - When The Sun Goes Down
TTITLE5=Tim McGraw - Real Good Man
TTITLE6=Lonestar - Amazed
TTITLE7=Buddy Jewell - Sweet Southern Comfort
TTITLE8=Garth Brooks - Wrapped Up In You
TTITLE9=Alan Jackson - Gone Country
TTITLE10=Terri Clark - Girls Lie Too
TTITLE11=Sara Evans - Suds In The Bucket
TTITLE12=Martina Mcbride - This One's For The Girls
TTITLE13=Keith Urban - Raining On Sunday
TTITLE14=Shania Twain - Women In Me
TTITLE15=Alan Jackson - Don't Rock The Jukebox
TTITLE16=Patsy Cline - Walking After Midnight
TTITLE17=John Denver - Thank God I'm A Country Boy
TTITLE18=Gretchen Wilson - Here For The Party
TTITLE19=Shania Twain - Dance With The One That Brought You
EXTD=
EXTT0=
EXTT1=
EXTT2=
EXTT3=
EXTT4=
EXTT5=
EXTT6=
EXTT7=
EXTT8=
EXTT9=
EXTT10=
EXTT11=
EXTT12=
EXTT13=
EXTT14=
EXTT15=
EXTT16=
EXTT17=
EXTT18=
EXTT19=
PLAYORDER=
